# xmcd CD database file
#
# Track frame offsets:
#	150
#	14330
#	32650
#	46770
#	64775
#	84650
#	104510
#	132482
#	150065
#	168720
#	188425
#	206625
#	220185
#
# Disc length: 3153 seconds
#
# Revision: 4
# Processed by: cddbd v1.5.1PL0 Copyright (c) Steve Scherf et al.
# Submitted via: CDex 1.51
#
DISCID=a80c4f0d
DTITLE=Bill Perry - Greycourt Lightning
DYEAR=1998
DGENRE=Blues
TTITLE0=Gettin' Down
TTITLE1=In Pain
TTITLE2=About Me  (Why I got the Blues)
TTITLE3=The Other Night
TTITLE4=Your Smile
TTITLE5=Blue Suede Shoes
TTITLE6=Sneaking Around
TTITLE7=Trust in You
TTITLE8=Greycourt Lightning
TTITLE9=Come on in My Kitchen
TTITLE10=My Life
TTITLE11=Evil Woman
TTITLE12=Roll with Me
EXTD=YEAR: 1998
EXTT0=
EXTT1=
EXTT2=
EXTT3=
EXTT4=
EXTT5=
EXTT6=
EXTT7=
EXTT8=
EXTT9=
EXTT10=
EXTT11=
EXTT12=
PLAYORDER=
